# xmcd
#
# Track frame offsets:
#	150
#	12922
#	31872
#	53518
#
# Disc length: 931 seconds
#
# Revision: 1
# Processed by: cddbd v1.5.2PL0 Copyright (c) Steve Scherf et al.
# Submitted via: audiograbber 1.83.01
#
DISCID=2103a104
DTITLE=The Cable Brothers - The Cable Brothers
DYEAR=1900
DGENRE=
TTITLE0=Better Man
TTITLE1=My Old Friend
TTITLE2=Dirt Road
TTITLE3=Rt 21 
EXTD=
EXTT0=
EXTT1=
EXTT2=
EXTT3=
PLAYORDER=
